<svg xmlns="http://www.w3.org/2000/svg" xmlns:xlink="http://www.w3.org/1999/xlink" version="1.1" width="56" height="56" viewBox="0 0 56 56" xml:space="preserve">
<g transform="matrix(0.6796 -0.3169 0.3169 0.6796 36.8964 27.944)" id="884398">
<path style="stroke: none; stroke-width: 1; stroke-dasharray: none; stroke-linecap: butt; stroke-dashoffset: 0; stroke-linejoin: miter; stroke-miterlimit: 4; is-custom-font: none; font-file-url: none; fill: rgb(0,161,147); fill-rule: nonzero; opacity: 1;" transform=" translate(-12.4646, -34.0806)" d="M 10.293 0.02 C 16.314 0.367 21.476 5.058 21.823 10.5 l 3.088 48.421 c 0.347 5.439 -4.253 9.567 -10.274 9.22 S 3.453 63.1 3.106 57.662 L 0.018 9.241 C -0.328 3.8 4.272 -0.326 10.293 0.02 Z" stroke-linecap="round"/>
</g>
<g transform="matrix(0.6851 0.305 -0.305 0.6851 19.7944 28.0803)" id="819851">
<path style="stroke: none; stroke-width: 1; stroke-dasharray: none; stroke-linecap: butt; stroke-dashoffset: 0; stroke-linejoin: miter; stroke-miterlimit: 4; is-custom-font: none; font-file-url: none; fill: rgb(241,65,108); fill-rule: nonzero; opacity: 1;" transform=" translate(-12.437, -34.0111)" d="M 14.54 0.019 C 20.574 -0.317 25.192 3.811 24.857 9.24 L 21.866 57.566 c -0.336 5.428 -5.5 10.1 -11.533 10.437 S -0.319 64.211 0.017 58.782 L 3.008 10.456 C 3.344 5.028 8.507 0.355 14.54 0.019 Z" stroke-linecap="round"/>
</g>
</svg>