<svg width="200" height="40" xmlns="http://www.w3.org/2000/svg" version="1.1">
 <!-- Generator: Adobe Illustrator 29.0.1, SVG Export Plug-In . SVG Version: 2.1.0 Build 192)  -->

 <g>
  <title>Layer 1</title>
  <g data-name="Layer_1" id="Layer_11">
   <g id="svg_4">
    <g id="svg_2">
     <path fill="#00a193" d="m26.5,2.7c3.2,-1.3 7,0 8.5,2.7l13.3,24.4c1.5,2.7 0.1,6 -3.1,7.3s-7,0 -8.5,-2.7l-13.3,-24.4c-1.5,-2.7 -0.1,-6 3.1,-7.3z" class="st2" id="svg_5"/>
    </g>
    <g id="svg_1">
     <path fill="#f1416c" d="m31.8,2.7c3.2,1.2 4.7,4.5 3.3,7.2l-12.8,24.6c-1.4,2.8 -5.2,4 -8.5,2.8s-4.7,-4.5 -3.3,-7.2l12.9,-24.6c1.4,-2.8 5.2,-4 8.5,-2.8l-0.1,0z" class="st4" id="svg_6"/>
    </g>
   </g>
   <g id="svg_8">
    <g id="svg_3" isolation="isolate" class="st1">
     <path id="svg_7" fill="#666" d="m81.4,31.3l-5,0l-2,-5.2l-9.2,0l-1.9,5.2l-4.9,0l8.9,-22.9l4.9,0l9.2,22.9zm-8.5,-9.1l-3.2,-8.5l-3.1,8.5l6.2,0l0.1,0z" class="st3"/>
     <path id="svg_9" fill="#666" d="m83.9,31.3l0,-22.9l7.4,0c2.8,0 4.6,0.1 5.5,0.3c1.3,0.3 2.4,1.1 3.3,2.2c0.9,1.2 1.3,2.6 1.3,4.5s-0.3,2.6 -0.8,3.5c-0.5,1 -1.2,1.7 -1.9,2.3c-0.8,0.5 -1.6,0.9 -2.4,1.1c-1.1,0.2 -2.7,0.3 -4.8,0.3l-3,0l0,8.6l-4.6,0l0,0.1zm4.6,-19.1l0,6.5l2.5,0c1.8,0 3,-0.1 3.7,-0.4c0.6,-0.2 1.1,-0.6 1.4,-1.1c0.3,-0.5 0.5,-1.1 0.5,-1.8s-0.2,-1.5 -0.7,-2.1c-0.5,-0.5 -1.1,-0.9 -1.9,-1c-0.6,-0.1 -1.7,-0.2 -3.3,-0.2l-2.2,0l0,0.1z" class="st3"/>
     <path id="svg_10" fill="#666" d="m105.1,31.3l0,-22.9l4.6,0l0,22.9l-4.6,0z" class="st3"/>
    </g>
    <g id="svg_11" isolation="isolate" opacity="0.8" class="st0">
     <path id="svg_12" fill="#666" d="m126.9,31.3l0,-20.2l-7.5,0l0,-2.7l18.2,0l0,2.7l-7.6,0l0,20.2l-3,0l-0.1,0z" class="st3"/>
     <path id="svg_13" fill="#666" d="m135.7,23c0,-3.1 0.9,-5.3 2.6,-6.8c1.4,-1.2 3.2,-1.8 5.2,-1.8s4.1,0.7 5.6,2.2c1.4,1.5 2.2,3.6 2.2,6.2s-0.3,3.8 -1,5s-1.6,2.2 -2.8,2.9s-2.6,1 -4,1c-2.3,0 -4.2,-0.7 -5.6,-2.2s-2.1,-3.6 -2.1,-6.4l-0.1,-0.1zm2.8,0c0,2.1 0.5,3.7 1.4,4.8s2.1,1.6 3.5,1.6s2.6,-0.5 3.5,-1.6s1.4,-2.7 1.4,-4.9s-0.5,-3.6 -1.4,-4.7c-0.9,-1.1 -2.1,-1.6 -3.5,-1.6s-2.6,0.5 -3.5,1.6c-0.9,1.1 -1.4,2.6 -1.4,4.8z" class="st3"/>
     <path id="svg_14" fill="#666" d="m153.5,23c0,-3.1 0.9,-5.3 2.6,-6.8c1.4,-1.2 3.2,-1.8 5.2,-1.8s4.1,0.7 5.6,2.2c1.4,1.5 2.2,3.6 2.2,6.2s-0.3,3.8 -1,5s-1.6,2.2 -2.8,2.9s-2.6,1 -4,1c-2.3,0 -4.2,-0.7 -5.6,-2.2s-2.1,-3.6 -2.1,-6.4l-0.1,-0.1zm2.8,0c0,2.1 0.5,3.7 1.4,4.8s2.1,1.6 3.5,1.6s2.6,-0.5 3.5,-1.6s1.4,-2.7 1.4,-4.9s-0.5,-3.6 -1.4,-4.7c-0.9,-1.1 -2.1,-1.6 -3.5,-1.6s-2.6,0.5 -3.5,1.6c-0.9,1.1 -1.4,2.6 -1.4,4.8z" class="st3"/>
     <path id="svg_15" fill="#666" d="m172.2,31.3l0,-22.9l2.8,0l0,22.9l-2.8,0z" class="st3"/>
     <path id="svg_16" fill="#666" d="m177.9,31.3l0,-2.3l10.6,-12.1c-1.2,0 -2.3,0 -3.2,0l-6.8,0l0,-2.3l13.6,0l0,1.9l-9,10.5l-1.7,1.9c1.3,0 2.4,-0.1 3.5,-0.1l7.7,0l0,2.4l-14.7,0l0,0.1z" class="st3"/>
    </g>
   </g>
  </g>
 </g>
</svg>