<svg width="24" height="22" xmlns="http://www.w3.org/2000/svg" xml:space="preserve" version="1.1">

 <g>
  <title>Layer 1</title>
  <g stroke="null" stroke-width="0" id="svg_3">
   <g stroke="null" id="884398" transform="matrix(0.304555 -0.142015 0.142015 0.304555 16.8709 12.9822)">
    <path stroke=" none" id="svg_1" fill-rule=" nonzero" fill=" rgb(0,161,147)" stroke-miterlimit="4" stroke-linejoin=" miter" stroke-dashoffset="0" stroke-dasharray=" none" stroke-linecap=" butt" d="m-2.59441,-40.82466c6.021,0.347 11.183,5.038 11.53,10.48l3.088,48.421c0.347,5.439 -4.253,9.567 -10.274,9.22s-11.184,-5.041 -11.531,-10.479l-3.088,-48.421c-0.346,-5.441 4.254,-9.567 10.275,-9.221z"/>
   </g>
   <g stroke="null" id="819851" transform="matrix(0.30702 0.136682 -0.136682 0.30702 9.20683 13.0433)">
    <path stroke=" none" id="svg_2" fill-rule=" nonzero" fill=" rgb(241,65,108)" stroke-miterlimit="4" stroke-linejoin=" miter" stroke-dashoffset="0" stroke-dasharray=" none" stroke-linecap=" butt" d="m-3.27863,-38.11043c6.034,-0.336 10.652,3.792 10.317,9.221l-2.991,48.326c-0.336,5.428 -5.5,10.1 -11.533,10.437s-10.652,-3.792 -10.316,-9.221l2.991,-48.326c0.336,-5.428 5.499,-10.101 11.532,-10.437z"/>
   </g>
  </g>
 </g>
</svg>